<svg width="156" height="27" viewBox="0 0 156 27" fill="none" xmlns="http://www.w3.org/2000/svg">
<path d="M7.26114 26.1836L-0.000221916 0.00177479H4.15461L9.25546 20.2773H9.49836L14.8038 0.00177479H18.9202L24.2256 20.2901H24.4685L29.5566 0.00177479H33.7242L26.4501 26.1836H22.4742L16.9643 6.5728H16.7597L11.2498 26.1836H7.26114ZM43.5488 26.5799C41.6141 26.5799 39.9479 26.1665 38.5502 25.3398C37.161 24.5046 36.0871 23.3327 35.3286 21.8242C34.5786 20.3072 34.2036 18.5302 34.2036 16.4933C34.2036 14.4819 34.5786 12.7092 35.3286 11.1751C36.0871 9.64098 37.144 8.44354 38.4991 7.58274C39.8627 6.72195 41.4565 6.29155 43.2803 6.29155C44.3883 6.29155 45.4621 6.47479 46.5019 6.84126C47.5417 7.20774 48.4749 7.78303 49.3016 8.56712C50.1283 9.35121 50.7803 10.3697 51.2576 11.6225C51.7349 12.8668 51.9735 14.3796 51.9735 16.1609V17.516H36.3641V14.6523H48.2278C48.2278 13.6467 48.0232 12.756 47.6141 11.9805C47.205 11.1964 46.6297 10.5785 45.8883 10.1268C45.1553 9.67507 44.2945 9.44922 43.3059 9.44922C42.232 9.44922 41.2945 9.71342 40.4934 10.2418C39.7008 10.7617 39.0871 11.4435 38.6525 12.2873C38.2263 13.1225 38.0133 14.0302 38.0133 15.0103V17.2475C38.0133 18.56 38.2434 19.6765 38.7036 20.5969C39.1724 21.5174 39.8244 22.2205 40.6596 22.7063C41.4948 23.1836 42.4707 23.4222 43.5871 23.4222C44.3116 23.4222 44.9721 23.32 45.5687 23.1154C46.1653 22.9023 46.6809 22.587 47.1155 22.1694C47.5502 21.7518 47.8826 21.2362 48.1127 20.6225L51.7306 21.2745C51.4408 22.3398 50.9209 23.2731 50.1709 24.0742C49.4295 24.8668 48.4962 25.4847 47.3712 25.9279C46.2547 26.3626 44.9806 26.5799 43.5488 26.5799ZM60.0371 0.00177479V26.1836H56.2146V0.00177479H60.0371ZM73.4508 26.5799C71.5502 26.5799 69.9138 26.1495 68.5417 25.2887C67.178 24.4194 66.1297 23.2219 65.3968 21.6964C64.6638 20.1708 64.2974 18.4237 64.2974 16.4549C64.2974 14.4606 64.6724 12.7006 65.4224 11.1751C66.1724 9.64098 67.2292 8.44354 68.5928 7.58274C69.9565 6.72195 71.563 6.29155 73.4124 6.29155C74.9039 6.29155 76.2334 6.56854 77.4011 7.12251C78.5687 7.66797 79.5104 8.43501 80.2263 9.42365C80.9508 10.4123 81.3812 11.5671 81.5175 12.8881H77.7974C77.5928 11.9677 77.1241 11.1751 76.3911 10.5103C75.6667 9.84553 74.6951 9.51314 73.4763 9.51314C72.411 9.51314 71.4778 9.79439 70.6766 10.3569C69.884 10.9109 69.2661 11.7035 68.8229 12.7347C68.3797 13.7575 68.1582 14.9677 68.1582 16.3654C68.1582 17.7972 68.3755 19.033 68.8101 20.0728C69.2448 21.1126 69.8584 21.918 70.6511 22.489C71.4522 23.06 72.394 23.3455 73.4763 23.3455C74.2008 23.3455 74.857 23.2134 75.4451 22.9492C76.0417 22.6765 76.5403 22.2887 76.9408 21.7859C77.3499 21.283 77.6354 20.6779 77.7974 19.9705H81.5175C81.3812 21.2404 80.9678 22.3739 80.2775 23.3711C79.5871 24.3683 78.6624 25.1523 77.5033 25.7234C76.3528 26.2944 75.0019 26.5799 73.4508 26.5799ZM88.4356 26.6156V23.4116H85.1956V13.0076H88.4356V9.76759H98.8756V13.0076H102.152V23.4116H98.8756V26.6156H88.4356ZM89.1556 22.5836H98.1556V13.7996H89.1556V22.5836ZM106.91 26.1836V6.54723H110.579V9.74325H110.822C111.231 8.66087 111.9 7.81712 112.829 7.212C113.758 6.59837 114.87 6.29155 116.166 6.29155C117.478 6.29155 118.578 6.59837 119.464 7.212C120.359 7.82564 121.019 8.66939 121.445 9.74325H121.65C122.119 8.69496 122.864 7.85973 123.887 7.23757C124.91 6.60689 126.129 6.29155 127.543 6.29155C129.325 6.29155 130.778 6.84979 131.903 7.96626C133.036 9.08274 133.603 10.766 133.603 13.016V26.1836H129.781V13.3739C129.781 12.0444 129.418 11.0813 128.694 10.4847C127.97 9.88814 127.105 9.58984 126.099 9.58984C124.855 9.58984 123.887 9.97337 123.197 10.7404C122.507 11.4989 122.161 12.4748 122.161 13.668V26.1836H118.352V13.131C118.352 12.0657 118.019 11.2092 117.355 10.5614C116.69 9.91371 115.825 9.58984 114.759 9.58984C114.035 9.58984 113.366 9.7816 112.752 10.1651C112.147 10.5401 111.657 11.0643 111.282 11.7376C110.916 12.4109 110.732 13.1907 110.732 14.0771V26.1836H106.91ZM147.189 26.5799C145.255 26.5799 143.589 26.1665 142.191 25.3398C140.802 24.5046 139.728 23.3327 138.969 21.8242C138.219 20.3072 137.844 18.5302 137.844 16.4933C137.844 14.4819 138.219 12.7092 138.969 11.1751C139.728 9.64098 140.785 8.44354 142.14 7.58274C143.503 6.72195 145.097 6.29155 146.921 6.29155C148.029 6.29155 149.103 6.47479 150.143 6.84126C151.182 7.20774 152.116 7.78303 152.942 8.56712C153.769 9.35121 154.421 10.3697 154.898 11.6225C155.375 12.8668 155.614 14.3796 155.614 16.1609V17.516H140.005V14.6523H151.868C151.868 13.6467 151.664 12.756 151.255 11.9805C150.846 11.1964 150.27 10.5785 149.529 10.1268C148.796 9.67507 147.935 9.44922 146.947 9.44922C145.873 9.44922 144.935 9.71342 144.134 10.2418C143.341 10.7617 142.728 11.4435 142.293 12.2873C141.867 13.1225 141.654 14.0302 141.654 15.0103V17.2475C141.654 18.56 141.884 19.6765 142.344 20.5969C142.813 21.5174 143.465 22.2205 144.3 22.7063C145.135 23.1836 146.111 23.4222 147.228 23.4222C147.952 23.4222 148.613 23.32 149.209 23.1154C149.806 22.9023 150.322 22.587 150.756 22.1694C151.191 21.7518 151.523 21.2362 151.753 20.6225L155.371 21.2745C155.081 22.3398 154.562 23.2731 153.812 24.0742C153.07 24.8668 152.137 25.4847 151.012 25.9279C149.895 26.3626 148.621 26.5799 147.189 26.5799Z" fill="#FAFAF9"/>
</svg>
